<?xml version="1.0" standalone="no"?>
<!DOCTYPE svg PUBLIC "-//W3C//DTD SVG 20010904//EN"
 "http://www.w3.org/TR/2001/REC-SVG-20010904/DTD/svg10.dtd">
<svg version="1.0" xmlns="http://www.w3.org/2000/svg"
 width="589.000000pt" height="589.000000pt" viewBox="0 0 589.000000 589.000000"
 preserveAspectRatio="xMidYMid meet">
<metadata>
Created by potrace 1.14, written by Peter Selinger 2001-2017
</metadata>
<g transform="translate(0.000000,589.000000) scale(0.100000,-0.100000)"
fill="#000000" stroke="none">
<path d="M2907 5794 c-1 -1 -51 -4 -112 -8 -173 -10 -317 -29 -530 -71 -146
-29 -465 -138 -587 -201 -15 -8 -31 -15 -35 -16 -5 -1 -30 -14 -56 -30 -26
-15 -50 -28 -54 -28 -12 0 -238 -145 -316 -202 -123 -92 -199 -159 -337 -298
-144 -145 -183 -190 -300 -345 -189 -252 -332 -520 -425 -800 -33 -100 -70
-228 -79 -275 -2 -14 -9 -47 -15 -75 -10 -46 -16 -81 -26 -145 -2 -14 -7 -59
-11 -100 -3 -41 -8 -88 -10 -105 -5 -39 -4 -398 0 -450 9 -99 17 -175 21 -193
2 -10 6 -43 10 -73 9 -72 60 -300 89 -397 73 -242 202 -512 349 -734 56 -84
112 -164 123 -178 12 -14 56 -65 97 -115 92 -110 292 -306 329 -322 48 -21 98
11 98 61 0 27 -20 52 -138 172 -76 78 -177 190 -225 249 -77 96 -203 274 -233
330 -6 11 -31 56 -55 100 -143 257 -258 601 -294 880 -3 28 -8 64 -10 80 -22
173 -22 487 0 665 14 110 17 135 20 149 1 9 6 36 10 61 11 66 11 65 40 185 24
99 80 277 104 330 5 11 21 49 36 85 40 96 130 263 192 360 50 76 149 217 163
230 3 3 29 34 59 70 97 115 282 293 414 398 277 219 540 364 852 470 142 48
341 95 456 107 30 4 60 8 67 11 19 6 223 17 317 18 86 0 311 -12 360 -19 17
-2 66 -9 110 -15 44 -7 112 -18 150 -27 39 -8 81 -17 95 -19 106 -20 367 -109
497 -170 52 -24 96 -44 98 -44 12 0 240 -139 321 -195 508 -355 927 -935 1097
-1520 31 -106 45 -167 68 -290 39 -212 47 -651 15 -845 -3 -14 -9 -56 -15 -95
-6 -38 -13 -81 -16 -95 -2 -14 -10 -50 -16 -80 -63 -318 -235 -699 -450 -996
-95 -133 -20 -119 -665 -118 -307 1 -566 2 -575 3 -9 0 -29 28 -47 64 -18 35
-47 84 -67 108 -19 24 -35 48 -35 52 0 4 18 30 40 58 130 164 252 511 276 784
3 28 7 61 9 74 2 13 7 73 11 134 l6 110 48 61 c69 88 174 262 185 306 1 3 11
25 22 50 118 264 159 635 103 932 -76 401 -301 759 -630 1004 -161 119 -405
234 -574 270 -133 29 -127 27 -245 39 -125 13 -249 10 -401 -10 -58 -7 -221
-50 -299 -78 -378 -136 -698 -417 -885 -777 -48 -93 -127 -301 -140 -370 -3
-14 -10 -49 -15 -79 -27 -133 -34 -341 -18 -491 13 -119 60 -303 102 -405 65
-156 162 -321 247 -422 l36 -42 0 -1173 0 -1173 26 -21 c30 -26 40 -26 216 17
310 75 522 182 693 347 67 65 157 175 157 191 0 6 5 11 10 11 6 0 10 4 10 9 0
5 16 35 35 67 20 33 45 85 57 117 12 32 31 65 42 72 17 10 231 12 1111 11 600
-1 1102 3 1118 7 36 12 90 75 186 216 299 443 465 894 508 1382 13 152 7 539
-11 636 -2 10 -9 59 -16 108 -49 360 -207 791 -401 1096 -312 490 -810 918
-1338 1149 -174 76 -461 165 -596 184 -23 4 -52 9 -65 11 -14 3 -45 8 -70 11
-25 3 -52 7 -60 9 -31 8 -405 25 -413 19z m-995 -3500 c244 -204 624 -350 929
-358 13 0 18 -14 23 -56 3 -30 9 -84 13 -120 9 -86 8 -294 -1 -400 -45 -514
-319 -872 -786 -1027 -108 -36 -221 -65 -227 -59 -6 6 -6 107 0 113 3 3 43 11
87 19 352 61 643 333 731 684 13 51 23 129 25 196 4 101 2 114 -17 138 -13 17
-30 26 -49 26 -67 0 -78 -19 -81 -145 -7 -305 -179 -570 -449 -693 -84 -39
-109 -47 -175 -57 -16 -3 -40 -7 -52 -9 -14 -3 -23 0 -24 7 0 18 -1 1750 0
1765 1 17 4 16 53 -24z m2093 -11 c-11 -98 -16 -130 -36 -233 -65 -329 -200
-574 -401 -727 -136 -104 -340 -180 -535 -199 -36 -3 -41 -2 -39 13 4 18 14
87 21 133 18 124 23 343 10 497 -5 48 -8 105 -9 127 -1 38 0 39 39 42 46 4
133 15 155 19 282 52 538 168 750 339 25 19 46 36 48 36 1 0 0 -21 -3 -47z
m-248 -1105 c55 -57 51 -60 -75 -60 -62 0 -115 2 -118 4 -8 9 120 88 142 88
11 0 34 -15 51 -32z"/>
</g>
</svg>
